<svg width="11" height="10" viewBox="0 0 11 10" fill="none" xmlns="http://www.w3.org/2000/svg">
<path d="M1 9.25H10M6.39221 2.05954C6.39221 2.05954 6.39221 2.80874 7.20952 3.55794C8.02683 4.30714 8.84414 4.30714 8.84414 4.30714M3.15981 7.86953L4.87617 7.64477C5.12375 7.61235 5.35318 7.5072 5.53002 7.34509L9.66146 3.55794C10.1128 3.14417 10.1128 2.47331 9.66146 2.05953L8.84415 1.31033C8.39276 0.896557 7.66091 0.896557 7.20952 1.31033L3.07808 5.09748C2.90124 5.25959 2.78653 5.4699 2.75116 5.69684L2.50596 7.27017C2.45148 7.6198 2.7784 7.91948 3.15981 7.86953Z" stroke="white" stroke-width="1.5" stroke-linecap="round"/>
</svg>
