<svg width="30" height="29" viewBox="0 0 30 29" fill="none" xmlns="http://www.w3.org/2000/svg">
<path d="M10.5082 24.2826C11.0355 24.2826 11.431 24.0369 12.0714 23.4907L15.3014 20.7234H20.9986C23.833 20.7234 25.4245 19.1577 25.4245 16.4541V9.3902C25.4245 6.68662 23.833 5.12091 20.9986 5.12091H8.99208C6.15761 5.12091 4.56616 6.68662 4.56616 9.3902V16.4541C4.56616 19.1577 6.19528 20.7234 8.92616 20.7234H9.31226V22.9718C9.31226 23.782 9.75485 24.2826 10.5082 24.2826ZM10.9696 22.28V19.6856C10.9696 19.1486 10.7342 18.9392 10.1974 18.9392H9.03917C7.25938 18.9392 6.41187 18.0744 6.41187 16.3995V9.44481C6.41187 7.76987 7.25938 6.90509 9.03917 6.90509H20.9421C22.7219 6.90509 23.5788 7.76987 23.5788 9.44481V16.3995C23.5788 18.0744 22.7219 18.9392 20.9421 18.9392H15.1978C14.6328 18.9392 14.3503 19.0302 13.9548 19.4308L10.9696 22.28ZM10.1974 10.5281H19.6896C20.0098 10.5281 20.2735 10.2732 20.2735 9.95458C20.2735 9.65418 20.0098 9.3993 19.6896 9.3993H10.1974C9.87727 9.3993 9.62301 9.65418 9.62301 9.95458C9.62301 10.2732 9.87727 10.5281 10.1974 10.5281ZM10.1974 13.4319H19.6896C20.0098 13.4319 20.2735 13.1679 20.2735 12.8584C20.2735 12.5489 20.0098 12.294 19.6896 12.294H10.1974C9.87727 12.294 9.62301 12.5489 9.62301 12.8584C9.62301 13.1679 9.87727 13.4319 10.1974 13.4319ZM10.1974 16.3266H16.3843C16.7045 16.3266 16.9587 16.0718 16.9587 15.7623C16.9587 15.4437 16.7045 15.1979 16.3843 15.1979H10.1974C9.87727 15.1979 9.62301 15.4437 9.62301 15.7623C9.62301 16.0718 9.87727 16.3266 10.1974 16.3266Z" fill="#008ACB"/>
</svg>
